<svg width="79" height="32" viewBox="0 0 79 32" fill="none" xmlns="http://www.w3.org/2000/svg">
<path d="M20.1424 0.843087L16.9853 0L14.3248 9.89565L11.9228 0.961791L8.76555 1.80488L11.3608 11.4573L4.8967 5.01518L2.58549 7.31854L9.67576 14.3848L0.845959 12.0269L0 15.1733L9.64767 17.7496C9.53721 17.2748 9.47877 16.7801 9.47877 16.2717C9.47877 12.6737 12.4055 9.75685 16.0159 9.75685C19.6262 9.75685 22.5529 12.6737 22.5529 16.2717C22.5529 16.7768 22.4952 17.2685 22.3861 17.7405L31.1541 20.0818L32 16.9354L22.314 14.3489L31.1444 11.9908L30.2984 8.84437L20.6128 11.4308L27.0768 4.98873L24.7656 2.68538L17.7737 9.65357L20.1424 0.843087Z" fill="#367AFF"/>
<path d="M22.3777 17.7771C22.107 18.9176 21.5356 19.9421 20.7515 20.763L27.1034 27.0935L29.4147 24.7901L22.3777 17.7771Z" fill="#367AFF"/>
<path d="M20.6872 20.8292C19.8936 21.637 18.8907 22.2398 17.7661 22.5504L20.0775 31.1472L23.2346 30.3041L20.6872 20.8292Z" fill="#367AFF"/>
<path d="M17.6481 22.5818C17.1263 22.7155 16.5794 22.7866 16.0158 22.7866C15.412 22.7866 14.8273 22.705 14.2722 22.5522L11.9587 31.1569L15.1159 31.9999L17.6481 22.5818Z" fill="#367AFF"/>
<path d="M14.1608 22.5206C13.0533 22.1945 12.0683 21.584 11.291 20.7739L4.92334 27.1199L7.23454 29.4233L14.1608 22.5206Z" fill="#367AFF"/>
<path d="M11.2377 20.7178C10.4737 19.9026 9.91718 18.8917 9.65228 17.7688L0.855713 20.1178L1.70167 23.2642L11.2377 20.7178Z" fill="#367AFF"/>
<path d="M46.0766 25V7.54545H49.2385V14.9347H57.3266V7.54545H60.497V25H57.3266V17.5852H49.2385V25H46.0766ZM68.8907 25H62.976V7.54545H69.0101C70.743 7.54545 72.2316 7.89489 73.476 8.59375C74.726 9.28693 75.6862 10.2841 76.3566 11.5852C77.0271 12.8864 77.3623 14.4432 77.3623 16.2557C77.3623 18.0739 77.0243 19.6364 76.3481 20.9432C75.6777 22.25 74.7089 23.2528 73.4419 23.9517C72.1805 24.6506 70.6635 25 68.8907 25ZM66.1379 22.2642H68.7373C69.9532 22.2642 70.9674 22.0426 71.7799 21.5994C72.5924 21.1506 73.2032 20.483 73.6123 19.5966C74.0214 18.7045 74.226 17.5909 74.226 16.2557C74.226 14.9205 74.0214 13.8125 73.6123 12.9318C73.2032 12.0455 72.5981 11.3835 71.797 10.946C71.0015 10.5028 70.0129 10.2812 68.8311 10.2812H66.1379V22.2642Z" fill="#232323"/>
</svg>
