<svg width="47" height="32" viewBox="0 0 47 32" fill="none" xmlns="http://www.w3.org/2000/svg">
<path d="M27.6424 0.843087L24.4853 0L21.8248 9.89565L19.4228 0.961791L16.2656 1.80488L18.8608 11.4573L12.3967 5.01518L10.0855 7.31854L17.1758 14.3848L8.34596 12.0269L7.5 15.1733L17.1477 17.7496C17.0372 17.2748 16.9788 16.7801 16.9788 16.2717C16.9788 12.6737 19.9055 9.75685 23.5159 9.75685C27.1262 9.75685 30.0529 12.6737 30.0529 16.2717C30.0529 16.7768 29.9952 17.2685 29.8861 17.7405L38.6541 20.0818L39.5 16.9354L29.814 14.3489L38.6444 11.9908L37.7984 8.84437L28.1128 11.4308L34.5768 4.98873L32.2656 2.68538L25.2737 9.65357L27.6424 0.843087Z" fill="#367AFF"/>
<path d="M29.8777 17.7771C29.607 18.9176 29.0356 19.9421 28.2515 20.763L34.6034 27.0935L36.9147 24.7901L29.8777 17.7771Z" fill="#367AFF"/>
<path d="M28.1872 20.8293C27.3936 21.6371 26.3907 22.2399 25.2661 22.5505L27.5775 31.1473L30.7346 30.3042L28.1872 20.8293Z" fill="#367AFF"/>
<path d="M25.1481 22.5818C24.6263 22.7155 24.0794 22.7866 23.5158 22.7866C22.912 22.7866 22.3273 22.705 21.7722 22.5522L19.4587 31.1569L22.6159 31.9999L25.1481 22.5818Z" fill="#367AFF"/>
<path d="M21.6608 22.5206C20.5533 22.1945 19.5683 21.584 18.791 20.7739L12.4233 27.1199L14.7345 29.4233L21.6608 22.5206Z" fill="#367AFF"/>
<path d="M18.7377 20.7178C17.9737 19.9026 17.4172 18.8917 17.1523 17.7688L8.35571 20.1178L9.20167 23.2642L18.7377 20.7178Z" fill="#367AFF"/>
</svg>
